# xmcd
#
# Track frame offsets: 
#        150
#        17373
#        25887
#        41591
#        53141
#        78785
#        90666
#        104474
#        125415
#        135356
#
# Disc length: 2023 seconds
#
# Revision: 0
# Processed by: cddbd v1.5.2PL0 Copyright (c) Steve Scherf et al.
# Submitted via: ExactAudioCopy v0.95b4
#
DISCID=6e07e50a
DTITLE=Rike Gee - Riki Gee
DYEAR=1900
DGENRE=
TTITLE0=Lonely City Cowboy
TTITLE1=BarHoller
TTITLE2=Change Your Hobby
TTITLE3=Aunt May's Trilogy
TTITLE4=I Need Your Company
TTITLE5=Spring Thaw
TTITLE6=Mr. Hick
TTITLE7=Plain Talk
TTITLE8=This Is It
TTITLE9=Take A Walk
EXTD=
EXTT0=
EXTT1=
EXTT2=
EXTT3=
EXTT4=
EXTT5=
EXTT6=
EXTT7=
EXTT8=
EXTT9=
PLAYORDER=
